<?xml version="1.0" standalone="no"?>
<!DOCTYPE svg PUBLIC "-//W3C//DTD SVG 20010904//EN"
 "http://www.w3.org/TR/2001/REC-SVG-20010904/DTD/svg10.dtd">
<svg version="1.0" xmlns="http://www.w3.org/2000/svg"
 width="1280.000000pt" height="715.000000pt" viewBox="0 0 1280.000000 715.000000"
 preserveAspectRatio="xMidYMid meet">
<g transform="translate(0.000000,715.000000) scale(0.100000,-0.100000)"
fill="#3f51b5" stroke="none">
<path d="M6950 7123 c0 -5 379 -503 841 -1108 462 -605 843 -1106 846 -1113 3
-7 3 -15 1 -17 -2 -3 -97 -24 -211 -47 l-207 -42 0 -76 c0 -41 11 -406 25
-810 32 -963 41 -1230 65 -1930 11 -322 20 -616 20 -655 0 -38 4 -76 8 -82 6
-9 124 36 437 166 237 97 441 180 455 184 30 7 60 -7 45 -22 -6 -5 -237 -150
-515 -322 l-505 -313 -1525 219 c-839 120 -1536 218 -1550 218 -14 0 -357 -78
-763 -172 l-737 -173 -115 72 -115 71 0 62 c0 34 5 161 10 282 6 121 24 537
40 925 16 388 35 811 40 940 6 129 15 340 20 468 13 304 30 674 35 786 l5 90
-178 175 -178 176 -719 983 c-396 540 -723 981 -726 980 -4 -2 -362 -478 -796
-1058 -952 -1274 -907 -1213 -895 -1209 9 4 388 354 1530 1417 161 150 299
272 306 270 21 -5 1235 -1377 1241 -1401 2 -12 16 -220 29 -462 14 -242 64
-1099 111 -1904 53 -889 83 -1467 77 -1473 -6 -6 -24 -2 -48 10 -36 18 -161
26 -1519 97 -814 42 -1484 81 -1489 86 -6 5 -5 390 2 971 14 1145 22 2225 16
2183 -4 -27 -67 -915 -184 -2580 -22 -314 -44 -622 -49 -684 -9 -106 -8 -118
11 -155 23 -45 389 -719 394 -725 2 -2 54 -9 116 -17 62 -8 367 -45 678 -83
311 -39 990 -122 1510 -185 520 -64 963 -121 986 -127 29 -8 63 -8 120 0 43 6
205 18 359 26 154 8 438 24 630 35 193 11 553 31 800 45 248 14 608 34 800 45
193 11 512 29 710 40 198 11 518 29 710 40 488 28 1186 67 1600 90 193 11 397
22 455 26 96 5 153 19 650 159 300 85 604 170 675 190 l130 37 477 311 c262
172 474 315 470 318 -4 4 -378 43 -832 88 -963 95 -1005 100 -991 114 6 6 338
6 973 -2 530 -6 1016 -11 1081 -11 l117 0 0 165 0 165 -67 0 c-38 -1 -176 -7
-308 -14 -132 -7 -245 -12 -251 -9 -14 5 -24 691 -24 1661 l0 724 21 5 c19 5
21 11 17 65 -2 32 -9 62 -14 67 -15 15 -1117 70 -1132 56 -10 -9 -10 -30 -2
-101 6 -55 10 -487 10 -1135 0 -575 3 -1094 7 -1152 l6 -107 39 0 38 0 -1 468
c-1 257 -4 780 -8 1162 -4 382 -5 701 -2 708 3 11 27 13 107 10 56 -1 105 -6
108 -9 3 -3 9 -501 13 -1106 l6 -1101 286 -97 c157 -54 292 -102 299 -108 7
-6 9 -14 5 -18 -4 -4 -228 -20 -498 -34 -269 -14 -746 -39 -1060 -55 -313 -16
-751 -39 -973 -51 -221 -12 -406 -19 -410 -15 -3 4 11 561 31 1239 51 1649 57
1821 67 1831 9 9 873 -74 893 -86 9 -5 13 -246 15 -938 2 -512 6 -930 8 -927
4 4 33 566 79 1502 14 286 27 532 29 546 3 15 302 521 666 1125 602 1002 658
1099 637 1102 -21 3 -309 -29 -2267 -248 l-614 -69 -778 174 c-427 96 -779
175 -782 175 -4 0 -6 -3 -6 -7z m4860 -2852 l105 -6 3 -1124 c1 -619 -1 -1128
-5 -1132 -10 -9 -542 86 -555 99 -6 6 -6 243 1 648 6 352 13 830 17 1064 3
234 7 436 10 448 l5 24 157 -7 c86 -4 204 -10 262 -14z"/>
<path d="M11508 3129 c-5 -35 -6 -35 52 -43 42 -6 44 -6 25 9 -11 8 -32 26
-46 40 l-27 25 -4 -31z"/>
<path d="M10898 5936 c-357 -623 -648 -1138 -648 -1144 0 -17 131 -173 142
-170 6 2 265 438 575 968 309 530 566 967 571 972 4 4 12 4 18 0 6 -4 237
-365 514 -802 277 -437 516 -814 532 -837 l29 -42 74 46 c41 25 75 50 75 55 0
13 -1222 2088 -1229 2088 -3 0 -297 -510 -653 -1134z"/>
<path d="M6447 6554 c-833 -1258 -1261 -1900 -1271 -1906 -7 -5 -12 1 -14 16
-2 16 200 360 658 1125 364 606 660 1105 657 1107 -3 3 -290 -27 -638 -66
-349 -39 -1001 -111 -1449 -161 l-815 -91 -780 175 c-429 97 -782 174 -784
171 -2 -2 1 -9 6 -16 6 -7 421 -548 924 -1203 l914 -1190 -3 -150 c-3 -164
-17 -820 -32 -1505 -5 -239 -14 -655 -20 -925 -5 -269 -12 -549 -15 -622 -4
-76 -2 -134 3 -137 5 -3 31 1 58 9 27 7 335 88 684 180 349 91 644 170 655
175 22 11 33 11 -613 -20 -222 -11 -435 -20 -474 -20 l-71 0 7 212 c4 117 11
348 16 513 5 165 14 451 20 635 6 184 15 468 20 630 5 162 15 468 21 680 8
256 15 389 23 397 8 9 109 2 451 -33 247 -25 442 -49 446 -55 3 -6 9 -97 13
-202 4 -106 15 -430 26 -722 11 -291 24 -681 31 -865 22 -645 25 -551 46 1283
4 406 10 602 17 612 6 8 48 20 94 28 45 8 84 16 86 18 2 2 331 411 731 909
413 514 734 905 743 905 17 0 1232 -1521 1232 -1541 0 -7 6 -14 14 -17 17 -7
352 30 378 41 13 6 -158 215 -823 1007 -462 550 -851 1011 -864 1024 l-23 24
-285 -429z"/>
<path d="M8046 4383 c-3 -191 -11 -656 -16 -1033 -22 -1481 -31 -1985 -39
-1993 -5 -5 -230 -1 -502 7 -1840 59 -1878 60 -1834 49 11 -3 535 -74 1164
-158 926 -124 1147 -156 1157 -169 10 -15 27 -16 145 -9 l134 8 3 115 c2 103
-193 3518 -202 3527 -2 2 -6 -153 -10 -344z"/>
<path d="M6850 4604 c-212 -35 -391 -66 -398 -69 -10 -4 -12 -18 -8 -53 3 -26
13 -256 22 -512 9 -256 20 -469 25 -474 10 -11 680 83 695 98 7 6 18 115 28
261 10 138 26 367 37 510 23 320 23 305 2 304 -10 -1 -191 -30 -403 -65z"/>
<path d="M976 4223 c4 -208 9 -443 13 -523 l6 -145 227 -34 c126 -19 230 -32
233 -30 5 6 -34 1001 -40 1034 -4 19 -22 23 -212 48 -114 15 -214 27 -220 27
-10 0 -11 -82 -7 -377z"/>
<path d="M1584 4448 c3 -40 13 -275 22 -523 9 -247 20 -454 25 -459 8 -9 620
-105 671 -106 21 0 29 6 32 23 3 12 16 186 31 387 14 201 30 425 36 499 6 74
6 137 2 141 -7 6 -788 111 -817 110 -4 0 -6 -33 -2 -72z"/>
<path d="M6050 4474 c-112 -19 -208 -38 -212 -42 -7 -7 10 -1023 18 -1031 4
-5 456 58 462 64 2 2 -1 111 -7 242 -6 131 -16 360 -22 508 -11 275 -13 296
-26 294 -4 -1 -100 -16 -213 -35z"/>
<path d="M994 3268 c3 -51 8 -280 12 -508 3 -228 9 -418 12 -422 8 -8 470 -25
481 -18 4 3 4 91 0 195 -4 105 -13 316 -19 470 -6 154 -15 283 -18 287 -8 7
-422 88 -453 88 -19 0 -20 -5 -15 -92z"/>
<path d="M6800 3306 c-157 -17 -289 -34 -295 -38 -10 -6 -8 -99 15 -652 6
-143 12 -261 14 -264 7 -7 561 139 572 151 7 7 22 165 38 402 15 215 28 399
29 410 2 17 -4 20 -43 21 -25 1 -173 -12 -330 -30z"/>
<path d="M6065 3229 c-88 -10 -171 -18 -184 -18 l-24 -1 7 -507 c4 -280 10
-511 14 -515 7 -7 471 108 484 120 4 4 -2 207 -12 452 -11 245 -20 455 -20
468 0 20 -4 22 -52 21 -29 -1 -125 -10 -213 -20z"/>
<path d="M1635 3168 c3 -40 9 -203 15 -363 6 -159 13 -336 16 -392 l6 -101 56
-6 c32 -3 161 -8 289 -12 l232 -6 5 23 c6 28 56 718 56 770 l0 35 -327 62
c-181 35 -334 62 -340 62 -9 0 -11 -19 -8 -72z"/>
</g>
</svg>
